<?xml version="1.0" standalone="no"?>
<!DOCTYPE svg PUBLIC "-//W3C//DTD SVG 20010904//EN"
 "http://www.w3.org/TR/2001/REC-SVG-20010904/DTD/svg10.dtd">
<svg version="1.0" xmlns="http://www.w3.org/2000/svg"
 width="707.000000pt" height="707.000000pt" viewBox="0 0 707.000000 707.000000"
 preserveAspectRatio="xMidYMid meet">
<metadata>
Created by potrace 1.11, written by Peter Selinger 2001-2013
</metadata>
<g transform="translate(0.000000,707.000000) scale(0.100000,-0.100000)"
fill="#000000" stroke="none">
<path d="M3309 7065 c-2 -1 -40 -6 -84 -9 -188 -15 -360 -44 -545 -93 -52 -13
-104 -26 -114 -29 -52 -10 -255 -82 -376 -131 -441 -182 -804 -425 -1151 -772
-397 -397 -670 -833 -852 -1361 -68 -197 -131 -460 -153 -646 -3 -23 -7 -53
-9 -65 -27 -140 -27 -668 1 -859 86 -602 264 -1073 586 -1553 33 -49 66 -96
73 -105 7 -10 44 -56 82 -103 480 -605 1137 -1033 1880 -1224 73 -19 145 -37
160 -40 15 -2 39 -7 53 -10 63 -13 139 -25 181 -30 26 -3 57 -8 70 -10 136
-26 713 -26 849 0 10 2 45 6 76 10 210 23 578 120 819 217 670 270 1233 727
1630 1323 137 205 247 413 345 650 66 160 156 467 185 630 4 22 9 49 11 60 35
201 39 259 39 610 0 399 -4 445 -55 705 -153 771 -555 1461 -1155 1979 -278
240 -563 419 -915 574 -145 64 -342 130 -525 177 -129 33 -128 32 -255 55 -47
8 -94 17 -105 19 -11 2 -51 7 -90 11 -38 4 -81 9 -95 12 -31 5 -557 13 -561 8z
m219 -259 c13 -11 26 -13 55 -6 60 13 127 -10 202 -71 36 -29 67 -61 71 -71 3
-10 10 -18 15 -18 5 0 9 -13 9 -30 0 -19 5 -30 15 -31 8 -1 21 -2 28 -3 6 -1
17 1 22 5 6 4 33 -6 60 -23 l50 -29 -60 6 c-35 3 -55 2 -47 -3 7 -5 10 -16 6
-25 -9 -24 53 -51 73 -32 7 8 13 18 13 24 0 6 7 8 15 5 8 -4 15 -12 15 -19 0
-7 7 -15 15 -19 8 -3 15 -13 15 -21 0 -9 -4 -13 -10 -10 -5 3 -10 2 -10 -4 0
-6 -6 -8 -14 -5 -11 4 -13 0 -9 -17 4 -14 2 -20 -4 -16 -6 4 -14 0 -17 -9 -4
-9 -5 -18 -4 -18 41 -24 57 -39 52 -47 -11 -19 27 -49 54 -42 18 4 23 2 20 -8
-3 -8 1 -27 9 -42 12 -24 17 -26 29 -16 20 17 37 -7 24 -32 -13 -24 18 -60
113 -130 48 -36 89 -59 104 -59 14 0 50 -12 78 -27 57 -28 93 -26 80 5 -4 9
-8 32 -9 49 -1 18 -12 43 -24 56 -25 26 -29 47 -9 47 23 0 18 56 -8 95 -14 19
-20 35 -15 35 6 0 10 7 10 15 0 8 5 15 11 15 6 0 9 7 5 15 -7 20 3 19 26 -1
16 -16 19 -15 38 7 17 20 20 34 16 76 l-4 51 27 -8 c16 -4 35 -4 42 1 8 5 10
9 5 9 -5 0 -1 9 9 20 9 10 15 26 12 34 -4 9 -2 18 3 21 16 10 11 24 -7 24 -41
0 -87 12 -95 23 -13 22 9 30 35 13 18 -11 27 -13 32 -5 8 13 -14 32 -67 56
-21 9 -38 21 -38 26 0 5 -4 7 -8 4 -5 -3 -9 2 -9 10 0 10 6 13 16 9 9 -4 57
-22 106 -40 439 -161 838 -418 1175 -755 69 -69 150 -154 180 -190 56 -67 49
-63 -55 34 -33 31 -69 59 -80 62 -11 3 -30 27 -43 55 -19 40 -30 51 -54 56
-18 3 -34 15 -40 29 -6 13 -20 24 -30 24 -21 0 -18 -11 16 -48 17 -19 17 -22
3 -16 -26 10 -20 -11 8 -30 13 -9 31 -29 39 -45 9 -16 29 -34 47 -40 17 -6 33
-20 36 -31 4 -14 11 -19 21 -15 9 3 30 -9 53 -32 39 -38 51 -67 25 -57 -10 4
-14 0 -12 -13 2 -10 9 -18 17 -18 8 0 14 -9 14 -20 1 -29 13 -45 30 -38 20 7
51 -17 34 -27 -17 -11 -2 -70 17 -63 8 3 14 11 14 18 0 13 28 30 44 26 5 -1
13 4 17 11 12 19 29 -2 39 -47 8 -35 7 -37 -16 -32 -24 4 -33 -6 -14 -18 5 -3
15 -15 21 -26 10 -19 8 -20 -18 -17 -46 5 -39 -24 13 -51 28 -15 56 -41 72
-65 14 -23 37 -57 52 -76 29 -37 50 -89 50 -123 0 -16 -5 -18 -27 -12 -15 3
-30 10 -33 13 -10 14 -85 7 -101 -9 -15 -15 -12 -23 27 -105 24 -49 46 -105
48 -124 5 -33 39 -136 47 -144 2 -2 22 -6 43 -9 24 -3 46 -14 56 -27 16 -21
16 -21 37 17 66 118 67 120 48 159 -27 58 -34 91 -22 103 6 6 8 11 4 11 -4 0
-3 9 4 21 16 30 26 16 80 -112 40 -96 45 -115 36 -139 -6 -16 -22 -33 -35 -39
-17 -8 -22 -16 -17 -30 4 -13 -1 -24 -17 -35 -25 -18 -83 -21 -93 -6 -10 17
-27 11 -21 -7 2 -10 7 -33 11 -50 6 -29 4 -33 -15 -33 -16 0 -20 -5 -16 -17
18 -62 18 -71 -3 -83 -16 -8 -20 -18 -17 -38 3 -15 8 -49 12 -77 3 -27 8 -57
9 -67 2 -9 -4 -18 -13 -20 -11 -3 -22 -24 -31 -57 -7 -29 -19 -55 -26 -58 -20
-7 -27 -30 -35 -117 -6 -68 -11 -83 -33 -102 -19 -16 -29 -41 -41 -99 -24
-118 -23 -133 17 -137 l32 -3 -4 -55 c-2 -30 -4 -89 -5 -131 -1 -45 -6 -82
-14 -91 -21 -26 -8 -165 19 -202 12 -17 28 -35 36 -39 7 -4 13 -17 13 -27 0
-10 6 -23 13 -27 6 -4 12 -28 12 -53 0 -40 4 -47 33 -65 26 -16 32 -26 30 -52
-2 -24 6 -41 30 -67 39 -43 49 -44 64 -11 6 14 18 25 27 26 9 0 28 3 44 5 15
3 27 0 27 -6 0 -21 28 -9 59 25 17 19 38 35 45 35 7 0 25 10 40 21 33 26 38
22 26 -22 -5 -19 -11 -45 -14 -59 -16 -91 -112 -408 -149 -492 -8 -18 -25 -58
-37 -88 -33 -81 -124 -262 -187 -370 -255 -437 -642 -839 -1073 -1115 -426
-273 -954 -457 -1440 -500 -41 -4 -86 -9 -100 -11 -89 -15 -529 -2 -680 21
-106 15 -184 29 -235 41 -33 7 -71 15 -85 18 -258 51 -664 216 -930 376 -603
362 -1091 920 -1355 1550 -105 250 -198 593 -230 845 -3 28 -8 64 -10 80 -22
174 -22 509 -1 710 28 260 117 633 195 820 111 264 164 371 263 535 125 207
286 414 454 588 91 94 131 116 122 67 -3 -14 -1 -28 4 -31 5 -3 4 -12 -3 -20
-6 -7 -9 -20 -6 -28 3 -8 1 -17 -6 -19 -9 -3 -9 -9 -1 -23 11 -18 6 -36 -28
-114 -8 -19 -11 -38 -6 -41 5 -3 5 -30 0 -64 -9 -55 -8 -59 19 -90 16 -18 29
-38 29 -44 0 -7 7 -26 16 -43 13 -26 14 -37 4 -75 -7 -24 -17 -46 -22 -49 -5
-3 -8 -2 -7 3 5 31 -3 94 -15 105 -9 9 -11 20 -5 35 6 15 5 23 -2 23 -6 0 -19
10 -28 22 -20 23 -39 19 -36 -9 2 -19 20 -68 34 -93 9 -17 -4 -127 -18 -145
-4 -5 -21 -41 -36 -80 -16 -38 -37 -80 -48 -92 -10 -11 -21 -41 -24 -65 -3
-23 -11 -61 -19 -83 -8 -22 -14 -49 -13 -60 0 -11 -2 -42 -5 -69 -2 -32 1 -57
9 -70 8 -12 13 -30 11 -41 -2 -11 1 -36 7 -55 5 -19 11 -46 12 -60 1 -14 3
-30 3 -37 1 -6 12 -15 25 -19 21 -7 96 -76 98 -92 1 -4 3 -20 4 -37 8 -98 19
-153 36 -177 32 -46 40 -75 23 -88 -21 -18 -19 -24 40 -89 42 -48 52 -66 48
-86 -3 -20 5 -34 42 -69 41 -40 52 -61 47 -90 -1 -5 5 -4 13 4 22 18 20 67 -4
87 -11 10 -20 27 -20 39 0 11 -9 29 -19 38 -11 10 -22 38 -26 66 -4 27 -13 54
-21 61 -8 6 -14 21 -14 32 0 11 -6 28 -14 36 -21 23 -48 100 -51 144 -3 33 -1
37 21 37 29 0 64 -51 57 -81 -8 -28 22 -93 78 -169 26 -36 50 -79 53 -95 3
-16 16 -38 30 -49 13 -12 34 -41 47 -66 12 -25 32 -58 44 -75 13 -16 26 -41
30 -55 4 -14 14 -32 21 -41 13 -14 12 -18 -1 -29 -8 -7 -15 -20 -15 -29 0 -25
87 -106 147 -138 29 -15 100 -54 157 -86 113 -63 166 -78 192 -56 39 33 88 15
162 -59 43 -41 58 -48 113 -51 9 -1 32 -17 52 -36 34 -33 77 -47 77 -25 0 41
118 -107 129 -162 5 -26 11 -31 40 -33 20 -2 45 -14 64 -33 18 -16 43 -33 57
-37 14 -4 53 -20 88 -36 35 -16 65 -29 67 -29 2 0 1 9 -2 20 -3 11 0 27 7 35
17 21 86 20 98 -2 12 -21 42 -10 42 15 0 33 -23 41 -136 47 -108 6 -109 6
-154 44 -44 38 -45 39 -43 97 0 33 4 83 8 112 9 62 -3 93 -44 112 -31 15 -179
22 -202 10 -11 -6 -23 -4 -35 5 -18 14 -18 16 -1 29 9 7 17 26 17 43 0 17 6
46 14 64 8 19 16 50 17 69 2 19 12 41 22 48 11 9 17 24 15 40 -3 26 -5 27 -76
28 -69 0 -74 -1 -93 -27 -10 -15 -19 -30 -19 -34 0 -3 -9 -28 -20 -54 l-21
-47 -77 -13 c-42 -7 -81 -14 -87 -15 -5 -1 -20 10 -33 25 -12 15 -31 30 -40
33 -20 7 -79 125 -88 176 -10 59 -13 135 -4 145 4 6 15 32 24 59 13 40 14 56
5 87 -11 34 -9 41 12 68 13 16 34 30 46 30 11 1 40 17 64 37 38 32 47 35 79
29 19 -4 48 -8 65 -8 16 0 35 -7 41 -15 13 -17 49 -25 79 -18 13 3 21 14 22
32 2 39 12 44 89 45 89 1 98 -2 122 -31 19 -24 21 -24 39 -7 11 9 25 17 31 17
17 0 72 -73 72 -96 0 -39 69 -164 90 -164 6 0 9 -3 9 -7 -7 -41 26 -51 45 -14
13 24 13 36 0 94 -9 37 -24 83 -33 103 -36 74 7 231 70 253 16 5 41 21 55 34
15 14 48 36 75 49 27 12 51 31 54 41 4 9 15 22 26 27 25 14 24 20 -6 65 -14
20 -25 45 -23 54 1 9 -1 22 -6 30 -5 8 -3 16 5 22 21 13 27 11 39 -12 10 -19
14 -16 49 38 20 32 43 73 50 91 7 17 19 32 25 33 6 1 22 2 36 3 14 2 41 10 59
18 19 9 41 14 48 11 9 -4 11 7 6 46 -7 60 14 101 51 101 13 0 26 7 30 15 3 9
18 15 39 15 25 0 45 9 71 33 31 28 42 33 83 31 79 -2 81 -3 60 -19 -11 -7 -25
-11 -33 -8 -8 3 -28 0 -45 -7 -24 -10 -29 -18 -27 -39 4 -33 37 -39 63 -11 10
11 22 20 28 20 18 0 147 54 147 61 0 5 11 19 25 33 28 28 33 56 10 56 -16 0
-50 -30 -57 -50 -2 -8 -20 -13 -41 -13 -46 0 -114 45 -135 90 -15 32 -15 34 5
48 12 8 20 23 18 32 -2 10 -4 23 -4 29 -2 19 -92 8 -146 -17 -28 -13 -68 -41
-90 -62 -22 -21 -53 -48 -69 -59 -26 -20 -28 -20 -18 -2 6 10 22 31 36 46 14
15 26 30 26 33 0 9 80 85 88 84 25 -4 41 4 47 20 3 11 18 22 33 25 23 5 152 8
261 5 28 -1 42 7 73 40 30 31 47 41 72 41 40 0 82 28 67 43 -6 6 -11 26 -11
45 0 20 -4 31 -10 27 -6 -4 -22 0 -35 9 -33 22 -71 20 -112 -5 -24 -15 -38
-18 -45 -11 -16 16 -3 28 57 46 56 18 81 36 49 36 -32 0 -129 41 -164 69 -28
23 -32 32 -22 43 9 12 3 24 -34 64 -24 27 -61 70 -81 97 -21 26 -41 47 -45 47
-10 0 -28 -35 -28 -57 -1 -17 -60 -63 -82 -63 -5 0 -19 11 -30 25 -13 17 -26
24 -38 20 -15 -5 -17 2 -17 55 0 67 -1 69 -33 75 -24 5 -34 11 -93 58 -26 21
-40 26 -52 20 -10 -6 -35 -5 -64 0 -70 15 -78 9 -79 -59 0 -32 4 -66 9 -76 7
-14 6 -18 -6 -18 -9 0 -15 -9 -15 -24 0 -13 -5 -26 -12 -28 -7 -3 1 -16 20
-34 36 -32 46 -77 29 -127 -12 -36 -66 -77 -101 -77 -26 0 -26 -1 -12 -29 8
-15 14 -41 12 -57 -1 -16 1 -40 6 -52 6 -18 3 -31 -13 -53 -29 -41 -64 -48
-89 -18 -10 13 -19 29 -20 35 0 6 -7 17 -16 25 -12 10 -15 29 -12 86 3 82 8
76 -72 87 -45 6 -130 36 -130 46 0 11 -108 82 -118 76 -4 -3 -20 -7 -35 -10
-23 -4 -27 -1 -32 27 -4 18 -6 36 -5 40 1 5 -10 21 -24 35 l-25 27 19 43 c26
58 94 128 150 155 55 27 64 52 21 62 -17 4 -33 10 -36 15 -3 4 15 2 40 -5 39
-12 47 -12 60 2 10 9 24 13 40 9 19 -5 31 1 56 26 l30 33 -27 7 c-15 4 -30 6
-33 4 -3 -1 -14 5 -23 16 -21 21 -9 23 35 5 18 -8 39 -12 47 -9 23 7 50 34 44
43 -3 5 2 9 10 9 9 0 16 -7 16 -15 0 -8 -4 -15 -8 -15 -10 0 -42 -65 -42 -84
0 -8 -9 -16 -20 -19 -21 -5 -28 -27 -9 -27 7 0 17 -7 24 -17 12 -16 17 -15 64
12 17 9 31 11 48 4 50 -19 71 -18 76 2 3 12 0 19 -9 19 -7 0 -18 9 -24 20 -6
11 -20 20 -31 20 -11 0 -22 7 -25 15 -4 8 -12 15 -20 15 -8 0 -14 7 -14 15 0
9 6 12 15 9 8 -4 17 1 21 10 3 9 11 16 18 16 6 1 26 14 45 29 28 25 32 34 26
59 -4 22 -2 31 9 35 24 10 19 39 -11 65 -17 14 -21 21 -11 18 10 -3 20 -1 23
4 4 7 13 6 25 0 10 -5 33 -10 51 -10 27 0 30 2 19 15 -15 18 1 20 19 3 6 -7
15 -13 19 -13 4 0 26 -18 49 -41 22 -22 53 -48 67 -57 34 -23 33 -47 -4 -82
-23 -22 -30 -36 -25 -53 5 -22 4 -23 -53 -20 -60 3 -92 -10 -92 -37 0 -27 64
-34 90 -10 32 29 102 -9 145 -79 6 -9 20 -17 33 -19 13 -2 32 -11 43 -20 11
-10 36 -19 57 -21 20 -2 45 -7 55 -11 33 -14 7 24 -44 61 -74 54 -61 55 40 2
29 -15 54 -28 56 -28 1 0 5 14 9 32 5 24 2 34 -14 45 -11 8 -20 22 -20 32 0
12 -10 21 -25 25 -14 4 -39 21 -55 38 -27 28 -29 33 -16 46 13 13 19 12 53
-14 21 -15 47 -36 57 -46 25 -23 46 -23 46 0 0 18 32 52 49 52 20 0 19 30 -2
42 -12 6 -23 11 -25 10 -1 -1 -12 4 -25 12 -12 7 -40 19 -62 26 -22 7 -44 19
-50 26 -5 7 -21 14 -34 16 -32 4 -40 28 -9 28 23 1 23 1 3 16 -11 8 -19 17
-17 20 7 11 -45 54 -65 54 -13 0 -23 5 -23 11 0 6 -7 8 -16 5 -12 -5 -15 -2
-10 10 5 13 1 15 -19 11 -20 -3 -34 4 -61 29 -36 36 -42 36 -113 15 -39 -12
-49 -8 -33 12 16 19 3 57 -19 57 -11 0 -35 -7 -54 -14 -35 -15 -38 -23 -39
-87 0 -10 -5 -15 -13 -12 -22 9 -15 62 12 89 31 31 31 32 -2 30 -28 -1 -123
-83 -123 -106 0 -6 11 -15 25 -20 14 -5 25 -12 25 -16 0 -3 -6 -4 -13 -1 -19
7 -41 -8 -32 -23 4 -6 17 -9 29 -6 28 6 67 -21 47 -33 -8 -5 -11 -16 -8 -25 7
-18 -80 -119 -94 -110 -12 7 -11 51 1 59 7 4 7 13 0 26 -9 16 -15 17 -31 8
-12 -6 -22 -9 -23 -7 -14 22 -22 58 -16 68 11 17 5 69 -9 83 -15 15 -81 -22
-92 -51 -6 -14 -5 -30 1 -42 14 -26 13 -29 -15 -40 -14 -5 -25 -14 -25 -19 0
-10 25 -9 36 2 10 10 24 9 24 -3 0 -5 -16 -17 -35 -26 -20 -9 -40 -25 -46 -36
-5 -10 -14 -16 -20 -13 -5 4 -5 13 0 23 4 9 6 23 4 30 -3 6 0 12 6 12 19 0 34
40 20 56 -10 13 -14 13 -29 -1 -9 -8 -22 -15 -29 -15 -8 0 -10 -7 -6 -20 10
-30 -30 -59 -81 -60 -44 0 -111 37 -106 59 1 8 -4 10 -15 7 -10 -3 -30 -8 -45
-12 -16 -3 -25 -10 -23 -15 3 -4 17 -4 31 1 31 12 37 12 30 1 -3 -4 -19 -11
-35 -14 -20 -4 -35 -17 -45 -36 -9 -16 -21 -33 -27 -37 -8 -4 -9 -3 -5 5 5 7
5 23 2 36 -5 20 -11 24 -34 19 -15 -3 -45 -1 -67 4 l-40 9 28 13 c36 17 34 25
-10 47 -21 10 -37 24 -36 30 4 18 -33 26 -57 13 -32 -17 -36 -4 -5 16 40 26
210 92 213 82 2 -4 16 -8 30 -9 24 -1 23 -2 -10 -13 -49 -15 -48 -30 2 -34 58
-5 49 -22 -11 -22 -28 0 -59 -5 -70 -10 -28 -16 -24 -40 7 -40 20 0 24 -3 16
-13 -6 -7 -8 -17 -4 -22 12 -18 46 -16 106 5 63 21 106 26 106 11 0 -15 49
-22 69 -9 11 6 17 18 13 26 -3 10 -1 13 6 8 6 -4 22 -2 34 5 l22 12 -22 17
c-28 23 -28 25 5 87 15 29 24 55 21 59 -13 12 -44 -7 -61 -36 -10 -16 -23 -30
-29 -30 -6 0 -3 11 6 25 25 38 19 48 -14 24 -16 -13 -33 -20 -37 -16 -3 4 -1
7 5 7 7 0 12 5 12 10 0 6 -8 10 -17 10 -13 0 -14 3 -6 11 21 21 363 103 363
88 0 -14 32 -10 50 6 9 8 39 17 68 21 45 5 51 4 46 -10 -3 -9 -10 -16 -16 -16
-5 0 -8 -8 -6 -17 4 -20 27 -24 142 -23 68 0 96 10 96 35 0 18 -33 24 -76 15
-53 -12 -116 2 -96 22 12 12 164 19 156 7 -8 -14 29 -11 52 5 40 28 148 23
182 -8z m492 -296 c8 -5 11 -10 5 -10 -5 0 -17 5 -25 10 -8 5 -10 10 -5 10 6
0 17 -5 25 -10z m-453 -1286 c-3 -3 -12 -4 -19 -1 -8 3 -5 6 6 6 11 1 17 -2
13 -5z"/>
<path d="M3002 6768 c-18 -18 -14 -28 12 -28 13 0 26 6 29 14 10 26 -19 36
-41 14z"/>
<path d="M2895 6711 c-3 -7 -15 -9 -26 -6 -14 5 -22 0 -30 -19 -12 -25 -39
-43 -39 -26 0 5 -7 7 -16 3 -9 -3 -13 -12 -8 -22 3 -9 8 -25 9 -36 2 -20 8
-21 55 -11 29 7 52 34 48 56 -2 8 4 22 14 30 12 10 15 20 9 29 -6 9 -10 10
-16 2z"/>
<path d="M2956 6684 c-37 -36 -47 -64 -22 -64 7 0 19 7 26 15 7 8 19 15 27 15
22 0 76 41 66 50 -4 4 -20 10 -34 14 -21 4 -34 -1 -63 -30z"/>
<path d="M2733 6693 c-3 -10 -9 -22 -12 -28 -3 -5 5 -3 18 5 24 16 29 32 12
38 -6 2 -14 -5 -18 -15z"/>
<path d="M3282 6668 c3 -25 28 -30 66 -14 40 17 19 36 -40 36 -25 0 -29 -3
-26 -22z"/>
<path d="M3312 6388 c-29 -29 2 -53 47 -37 30 12 24 43 -9 47 -14 2 -31 -3
-38 -10z"/>
<path d="M5083 6338 c1 -7 -7 -12 -17 -11 -11 1 -25 -6 -31 -14 -11 -14 -14
-14 -34 6 -15 15 -28 20 -46 15 -14 -3 -25 -10 -25 -14 0 -12 28 -32 37 -27 5
3 19 -1 33 -9 24 -13 24 -15 0 -18 -21 -2 -10 -21 15 -24 14 -2 30 -12 36 -23
8 -16 19 -20 47 -18 20 2 47 -3 60 -10 30 -16 42 -7 37 30 -3 25 0 32 16 36
20 5 19 7 -8 29 -15 13 -33 23 -39 24 -6 0 -19 9 -29 20 -20 22 -56 27 -52 8z"/>
<path d="M3078 6087 c-16 -6 -28 -17 -28 -24 0 -20 16 -16 47 12 30 26 25 29
-19 12z"/>
<path d="M3175 6066 c-25 -18 -13 -49 17 -44 17 2 24 11 26 31 4 30 -12 36
-43 13z"/>
<path d="M5707 5910 c7 -25 23 -37 23 -17 0 8 -6 20 -14 26 -12 10 -13 8 -9
-9z"/>
<path d="M5821 5730 c-1 -9 5 -22 11 -28 10 -10 10 -15 -1 -21 -17 -11 0 -45
35 -67 13 -9 23 -22 21 -28 -3 -9 16 -60 28 -74 6 -7 35 12 35 24 0 8 10 14
22 14 20 0 20 1 5 18 -10 10 -17 22 -17 26 0 4 -9 20 -19 35 -11 15 -21 34
-23 42 -2 8 -16 27 -31 42 -22 22 -31 26 -42 17 -10 -8 -14 -8 -18 2 -4 9 -6
8 -6 -2z"/>
<path d="M4216 5403 c-3 -3 -6 -19 -6 -33 0 -17 -17 -49 -44 -84 -32 -41 -42
-62 -39 -81 5 -23 7 -24 87 -22 77 2 85 0 115 -26 51 -43 60 -37 58 38 -1 36
-4 65 -7 66 -31 4 -44 10 -60 24 -9 9 -30 18 -46 21 -42 8 -49 19 -30 48 9 14
16 28 16 30 0 9 -37 25 -44 19z"/>
<path d="M3887 5295 c41 -38 53 -41 71 -23 17 17 15 28 -6 28 -10 0 -27 7 -38
15 -10 8 -29 15 -42 15 -21 0 -20 -3 15 -35z"/>
<path d="M2769 3698 c-26 -48 52 -89 107 -57 45 27 81 24 115 -10 16 -16 44
-32 61 -36 18 -4 45 -18 60 -32 24 -23 35 -25 127 -27 56 -1 101 1 101 5 0 4
-16 21 -35 38 -31 27 -43 31 -95 31 -47 0 -64 5 -87 24 -15 13 -47 33 -70 45
-24 12 -43 25 -43 30 0 5 -52 9 -116 8 -99 -2 -117 -5 -125 -19z"/>
<path d="M3458 3502 c-16 -2 -29 -6 -29 -10 -9 -50 -6 -64 17 -87 26 -26 52
-28 93 -5 12 6 88 13 174 15 83 2 156 4 161 5 6 0 2 6 -9 13 -10 8 -15 19 -11
26 6 9 -4 10 -41 6 -26 -4 -59 -2 -72 3 -17 6 -33 4 -53 -6 -26 -12 -32 -12
-71 9 -43 23 -112 36 -159 31z"/>
<path d="M3120 3438 c0 -5 16 -16 35 -24 19 -8 35 -19 35 -24 0 -17 38 -11 44
7 8 19 -16 42 -43 44 -9 1 -28 2 -43 3 -16 2 -28 -1 -28 -6z"/>
<path d="M3482 3078 c-7 -7 -12 -18 -12 -25 0 -8 -13 -13 -33 -13 -18 0 -50
-9 -72 -20 -22 -11 -50 -20 -62 -20 -13 0 -24 -4 -24 -10 -1 -5 -3 -19 -4 -30
-1 -11 -3 -24 -4 -29 0 -5 -14 -14 -31 -20 -20 -6 -30 -17 -30 -30 0 -11 -8
-26 -17 -33 -10 -7 -24 -21 -32 -31 -12 -15 -12 -20 1 -35 14 -15 23 -41 33
-94 2 -10 -2 -24 -10 -31 -7 -8 -17 -31 -21 -51 -4 -26 -13 -40 -30 -46 -15
-6 -22 -15 -18 -24 5 -14 -32 -59 -59 -69 -9 -3 -17 -16 -19 -29 -2 -15 -11
-24 -26 -26 -21 -3 -23 -8 -20 -50 2 -39 7 -47 23 -48 11 -1 25 -2 32 -3 17
-1 5 -29 -16 -36 -10 -3 -27 -19 -39 -35 -22 -29 -22 -31 -6 -80 9 -28 28 -61
43 -74 98 -87 112 -103 117 -131 3 -16 20 -52 39 -80 100 -146 133 -189 146
-196 8 -4 35 -17 60 -29 25 -11 65 -38 88 -60 23 -22 49 -40 57 -40 14 0 15
-13 9 -97 -3 -54 -8 -126 -10 -160 -2 -34 -8 -71 -15 -82 -6 -11 -20 -51 -32
-88 -20 -63 -23 -91 -14 -168 4 -31 -9 -65 -28 -77 -5 -4 -11 -18 -12 -32 0
-14 -7 -33 -15 -42 -8 -10 -15 -38 -15 -63 -2 -50 -8 -93 -19 -130 -7 -19 -5
-22 11 -19 11 2 20 13 22 26 2 12 8 22 14 22 6 0 8 -9 4 -22 -4 -13 -9 -38
-13 -56 -6 -33 -17 -41 -27 -19 -3 6 -3 1 0 -12 4 -16 3 -21 -5 -17 -22 14
-23 -24 -2 -43 l22 -19 -21 -7 c-16 -5 -19 -12 -14 -28 10 -37 52 -91 83 -110
29 -17 105 -26 118 -14 3 4 -1 7 -10 7 -21 0 -29 15 -34 61 -4 30 -1 39 11 39
8 0 19 6 23 13 4 8 20 22 36 32 15 9 27 22 27 28 0 6 -3 7 -7 4 -10 -11 -33
13 -33 34 0 17 14 22 46 18 4 0 17 18 31 40 13 23 30 41 38 41 8 0 17 5 21 12
5 8 0 9 -14 6 -18 -5 -22 -2 -22 18 0 23 3 24 39 18 38 -6 40 -5 58 32 18 38
19 38 83 42 54 3 72 9 110 36 51 37 59 67 26 104 l-20 23 80 -7 80 -7 75 64
c41 35 76 66 79 69 3 3 11 6 19 8 34 7 150 112 152 137 2 34 12 61 26 77 28
31 111 79 143 83 16 2 40 11 52 20 13 8 40 15 62 15 51 0 93 27 158 103 29 34
56 64 59 67 19 15 99 162 104 190 11 63 33 96 97 149 36 29 85 75 109 103 23
28 49 56 56 63 27 27 37 145 15 167 -6 6 -27 12 -48 14 -29 2 -47 13 -75 44
-36 39 -40 41 -92 39 -30 -1 -69 4 -86 11 -29 12 -34 11 -52 -9 -16 -17 -24
-19 -40 -10 -19 10 -19 11 -3 23 15 11 13 15 -20 36 -33 20 -55 28 -133 47
-16 4 -23 -1 -28 -19 -12 -38 -45 -52 -45 -19 0 11 9 26 20 34 17 12 18 16 6
26 -8 7 -30 15 -50 18 -32 5 -37 3 -46 -21 -5 -14 -16 -26 -25 -26 -24 0 -18
34 11 61 14 13 30 32 35 41 11 21 2 48 -17 48 -9 0 -14 12 -14 38 0 60 -19 83
-100 123 -67 33 -83 37 -150 36 -88 -1 -131 17 -150 63 -7 17 -27 38 -43 47
-17 8 -37 21 -44 27 -7 6 -19 17 -28 24 -8 7 -12 18 -9 24 5 8 -7 9 -39 5 -45
-6 -47 -6 -47 18 0 14 5 25 10 25 6 0 10 4 10 9 0 14 -51 23 -65 11 -7 -6 -24
-8 -38 -5 -19 5 -28 1 -43 -24 l-20 -31 -34 24 c-21 14 -56 25 -87 28 -37 4
-58 11 -70 26 -21 26 -85 53 -99 44 -6 -4 -13 -15 -17 -24 -3 -10 -15 -18 -25
-18 -32 0 -44 -24 -37 -74 5 -30 4 -46 -3 -46 -15 0 -25 37 -26 94 -1 38 3 53
21 70 13 11 23 24 23 29 0 12 -45 8 -58 -5z"/>
</g>
</svg>
